<?xml version="1.0" encoding="utf-8" standalone="no"?>
<!DOCTYPE svg PUBLIC "-//W3C//DTD SVG 1.1//EN"
  "http://www.w3.org/Graphics/SVG/1.1/DTD/svg11.dtd">
<svg xmlns:xlink="http://www.w3.org/1999/xlink" width="590.4pt" height="226.8pt" viewBox="0 0 590.4 226.8" xmlns="http://www.w3.org/2000/svg" version="1.1">
 <metadata>
  <rdf:RDF xmlns:dc="http://purl.org/dc/elements/1.1/" xmlns:cc="http://creativecommons.org/ns#" xmlns:rdf="http://www.w3.org/1999/02/22-rdf-syntax-ns#">
   <cc:Work>
    <dc:type rdf:resource="http://purl.org/dc/dcmitype/StillImage"/>
    <dc:date>2026-09-08T22:50:04.972503</dc:date>
    <dc:format>image/svg+xml</dc:format>
    <dc:creator>
     <cc:Agent>
      <dc:title>Matplotlib v3.7.0, https://matplotlib.org/</dc:title>
     </cc:Agent>
    </dc:creator>
   </cc:Work>
  </rdf:RDF>
 </metadata>
 <defs>
  <style type="text/css">*{stroke-linejoin: round; stroke-linecap: butt}</style>
 </defs>
 <g id="figure_1">
  <g id="patch_1">
   <path d="M 0 226.8 
L 590.4 226.8 
L 590.4 0 
L 0 0 
z
" style="fill: #ffffff"/>
  </g>
  <g id="axes_1">
   <g id="patch_2">
    <path d="M 59.04 183.708 
L 578.592 183.708 
L 578.592 9.072 
L 59.04 9.072 
z
" style="fill: #ffffff"/>
   </g>
   <g id="matplotlib.axis_1">
    <g id="xtick_1">
     <g id="line2d_1">
      <path d="M 59.04 183.708 
L 59.04 9.072 
" clip-path="url(#pa09f8a9a3d)" style="fill: none; stroke: #d9d9d9; stroke-opacity: 0.75; stroke-width: 0.7; stroke-linecap: square"/>
     </g>
     <g id="line2d_2">
      <defs>
       <path id="mfd0cc787f4" d="M 0 0 
L 0 3.5 
" style="stroke: #000000; stroke-width: 0.8"/>
      </defs>
      <g>
       <use xlink:href="#mfd0cc787f4" x="59.04" y="183.708" style="stroke: #000000; stroke-width: 0.8"/>
      </g>
     </g>
     <g id="text_1">
      <!-- 0 -->
      <g transform="translate(56.495 196.78675) scale(0.08 -0.08)">
       <defs>
        <path id="DejaVuSans-30" d="M 2034 4250 
Q 1547 4250 1301 3770 
Q 1056 3291 1056 2328 
Q 1056 1369 1301 889 
Q 1547 409 2034 409 
Q 2525 409 2770 889 
Q 3016 1369 3016 2328 
Q 3016 3291 2770 3770 
Q 2525 4250 2034 4250 
z
M 2034 4750 
Q 2819 4750 3233 4129 
Q 3647 3509 3647 2328 
Q 3647 1150 3233 529 
Q 2819 -91 2034 -91 
Q 1250 -91 836 529 
Q 422 1150 422 2328 
Q 422 3509 836 4129 
Q 1250 4750 2034 4750 
z
" transform="scale(0.015625)"/>
       </defs>
       <use xlink:href="#DejaVuSans-30"/>
      </g>
     </g>
    </g>
    <g id="xtick_2">
     <g id="line2d_3">
      <path d="M 171.903745 183.708 
L 171.903745 9.072 
" clip-path="url(#pa09f8a9a3d)" style="fill: none; stroke: #d9d9d9; stroke-opacity: 0.75; stroke-width: 0.7; stroke-linecap: square"/>
     </g>
     <g id="line2d_4">
      <g>
       <use xlink:href="#mfd0cc787f4" x="171.903745" y="183.708" style="stroke: #000000; stroke-width: 0.8"/>
      </g>
     </g>
     <g id="text_2">
      <!-- 1 -->
      <g transform="translate(169.358745 196.78675) scale(0.08 -0.08)">
       <defs>
        <path id="DejaVuSans-31" d="M 794 531 
L 1825 531 
L 1825 4091 
L 703 3866 
L 703 4441 
L 1819 4666 
L 2450 4666 
L 2450 531 
L 3481 531 
L 3481 0 
L 794 0 
L 794 531 
z
" transform="scale(0.015625)"/>
       </defs>
       <use xlink:href="#DejaVuSans-31"/>
      </g>
     </g>
    </g>
    <g id="xtick_3">
     <g id="line2d_5">
      <path d="M 284.767491 183.708 
L 284.767491 9.072 
" clip-path="url(#pa09f8a9a3d)" style="fill: none; stroke: #d9d9d9; stroke-opacity: 0.75; stroke-width: 0.7; stroke-linecap: square"/>
     </g>
     <g id="line2d_6">
      <g>
       <use xlink:href="#mfd0cc787f4" x="284.767491" y="183.708" style="stroke: #000000; stroke-width: 0.8"/>
      </g>
     </g>
     <g id="text_3">
      <!-- 2 -->
      <g transform="translate(282.222491 196.78675) scale(0.08 -0.08)">
       <defs>
        <path id="DejaVuSans-32" d="M 1228 531 
L 3431 531 
L 3431 0 
L 469 0 
L 469 531 
Q 828 903 1448 1529 
Q 2069 2156 2228 2338 
Q 2531 2678 2651 2914 
Q 2772 3150 2772 3378 
Q 2772 3750 2511 3984 
Q 2250 4219 1831 4219 
Q 1534 4219 1204 4116 
Q 875 4013 500 3803 
L 500 4441 
Q 881 4594 1212 4672 
Q 1544 4750 1819 4750 
Q 2544 4750 2975 4387 
Q 3406 4025 3406 3419 
Q 3406 3131 3298 2873 
Q 3191 2616 2906 2266 
Q 2828 2175 2409 1742 
Q 1991 1309 1228 531 
z
" transform="scale(0.015625)"/>
       </defs>
       <use xlink:href="#DejaVuSans-32"/>
      </g>
     </g>
    </g>
    <g id="xtick_4">
     <g id="line2d_7">
      <path d="M 397.631236 183.708 
L 397.631236 9.072 
" clip-path="url(#pa09f8a9a3d)" style="fill: none; stroke: #d9d9d9; stroke-opacity: 0.75; stroke-width: 0.7; stroke-linecap: square"/>
     </g>
     <g id="line2d_8">
      <g>
       <use xlink:href="#mfd0cc787f4" x="397.631236" y="183.708" style="stroke: #000000; stroke-width: 0.8"/>
      </g>
     </g>
     <g id="text_4">
      <!-- 3 -->
      <g transform="translate(395.086236 196.78675) scale(0.08 -0.08)">
       <defs>
        <path id="DejaVuSans-33" d="M 2597 2516 
Q 3050 2419 3304 2112 
Q 3559 1806 3559 1356 
Q 3559 666 3084 287 
Q 2609 -91 1734 -91 
Q 1441 -91 1130 -33 
Q 819 25 488 141 
L 488 750 
Q 750 597 1062 519 
Q 1375 441 1716 441 
Q 2309 441 2620 675 
Q 2931 909 2931 1356 
Q 2931 1769 2642 2001 
Q 2353 2234 1838 2234 
L 1294 2234 
L 1294 2753 
L 1863 2753 
Q 2328 2753 2575 2939 
Q 2822 3125 2822 3475 
Q 2822 3834 2567 4026 
Q 2313 4219 1838 4219 
Q 1578 4219 1281 4162 
Q 984 4106 628 3988 
L 628 4550 
Q 988 4650 1302 4700 
Q 1616 4750 1894 4750 
Q 2613 4750 3031 4423 
Q 3450 4097 3450 3541 
Q 3450 3153 3228 2886 
Q 3006 2619 2597 2516 
z
" transform="scale(0.015625)"/>
       </defs>
       <use xlink:href="#DejaVuSans-33"/>
      </g>
     </g>
    </g>
    <g id="xtick_5">
     <g id="line2d_9">
      <path d="M 510.494981 183.708 
L 510.494981 9.072 
" clip-path="url(#pa09f8a9a3d)" style="fill: none; stroke: #d9d9d9; stroke-opacity: 0.75; stroke-width: 0.7; stroke-linecap: square"/>
     </g>
     <g id="line2d_10">
      <g>
       <use xlink:href="#mfd0cc787f4" x="510.494981" y="183.708" style="stroke: #000000; stroke-width: 0.8"/>
      </g>
     </g>
     <g id="text_5">
      <!-- 4 -->
      <g transform="translate(507.949981 196.78675) scale(0.08 -0.08)">
       <defs>
        <path id="DejaVuSans-34" d="M 2419 4116 
L 825 1625 
L 2419 1625 
L 2419 4116 
z
M 2253 4666 
L 3047 4666 
L 3047 1625 
L 3713 1625 
L 3713 1100 
L 3047 1100 
L 3047 0 
L 2419 0 
L 2419 1100 
L 313 1100 
L 313 1709 
L 2253 4666 
z
" transform="scale(0.015625)"/>
       </defs>
       <use xlink:href="#DejaVuSans-34"/>
      </g>
     </g>
    </g>
    <g id="text_6">
     <!-- Time (s) -->
     <g transform="translate(298.487094 210.048937) scale(0.1 -0.1)">
      <defs>
       <path id="DejaVuSans-54" d="M -19 4666 
L 3928 4666 
L 3928 4134 
L 2272 4134 
L 2272 0 
L 1638 0 
L 1638 4134 
L -19 4134 
L -19 4666 
z
" transform="scale(0.015625)"/>
       <path id="DejaVuSans-69" d="M 603 3500 
L 1178 3500 
L 1178 0 
L 603 0 
L 603 3500 
z
M 603 4863 
L 1178 4863 
L 1178 4134 
L 603 4134 
L 603 4863 
z
" transform="scale(0.015625)"/>
       <path id="DejaVuSans-6d" d="M 3328 2828 
Q 3544 3216 3844 3400 
Q 4144 3584 4550 3584 
Q 5097 3584 5394 3201 
Q 5691 2819 5691 2113 
L 5691 0 
L 5113 0 
L 5113 2094 
Q 5113 2597 4934 2840 
Q 4756 3084 4391 3084 
Q 3944 3084 3684 2787 
Q 3425 2491 3425 1978 
L 3425 0 
L 2847 0 
L 2847 2094 
Q 2847 2600 2669 2842 
Q 2491 3084 2119 3084 
Q 1678 3084 1418 2786 
Q 1159 2488 1159 1978 
L 1159 0 
L 581 0 
L 581 3500 
L 1159 3500 
L 1159 2956 
Q 1356 3278 1631 3431 
Q 1906 3584 2284 3584 
Q 2666 3584 2933 3390 
Q 3200 3197 3328 2828 
z
" transform="scale(0.015625)"/>
       <path id="DejaVuSans-65" d="M 3597 1894 
L 3597 1613 
L 953 1613 
Q 991 1019 1311 708 
Q 1631 397 2203 397 
Q 2534 397 2845 478 
Q 3156 559 3463 722 
L 3463 178 
Q 3153 47 2828 -22 
Q 2503 -91 2169 -91 
Q 1331 -91 842 396 
Q 353 884 353 1716 
Q 353 2575 817 3079 
Q 1281 3584 2069 3584 
Q 2775 3584 3186 3129 
Q 3597 2675 3597 1894 
z
M 3022 2063 
Q 3016 2534 2758 2815 
Q 2500 3097 2075 3097 
Q 1594 3097 1305 2825 
Q 1016 2553 972 2059 
L 3022 2063 
z
" transform="scale(0.015625)"/>
       <path id="DejaVuSans-20" transform="scale(0.015625)"/>
       <path id="DejaVuSans-28" d="M 1984 4856 
Q 1566 4138 1362 3434 
Q 1159 2731 1159 2009 
Q 1159 1288 1364 580 
Q 1569 -128 1984 -844 
L 1484 -844 
Q 1016 -109 783 600 
Q 550 1309 550 2009 
Q 550 2706 781 3412 
Q 1013 4119 1484 4856 
L 1984 4856 
z
" transform="scale(0.015625)"/>
       <path id="DejaVuSans-73" d="M 2834 3397 
L 2834 2853 
Q 2591 2978 2328 3040 
Q 2066 3103 1784 3103 
Q 1356 3103 1142 2972 
Q 928 2841 928 2578 
Q 928 2378 1081 2264 
Q 1234 2150 1697 2047 
L 1894 2003 
Q 2506 1872 2764 1633 
Q 3022 1394 3022 966 
Q 3022 478 2636 193 
Q 2250 -91 1575 -91 
Q 1294 -91 989 -36 
Q 684 19 347 128 
L 347 722 
Q 666 556 975 473 
Q 1284 391 1588 391 
Q 1994 391 2212 530 
Q 2431 669 2431 922 
Q 2431 1156 2273 1281 
Q 2116 1406 1581 1522 
L 1381 1569 
Q 847 1681 609 1914 
Q 372 2147 372 2553 
Q 372 3047 722 3315 
Q 1072 3584 1716 3584 
Q 2034 3584 2315 3537 
Q 2597 3491 2834 3397 
z
" transform="scale(0.015625)"/>
       <path id="DejaVuSans-29" d="M 513 4856 
L 1013 4856 
Q 1481 4119 1714 3412 
Q 1947 2706 1947 2009 
Q 1947 1309 1714 600 
Q 1481 -109 1013 -844 
L 513 -844 
Q 928 -128 1133 580 
Q 1338 1288 1338 2009 
Q 1338 2731 1133 3434 
Q 928 4138 513 4856 
z
" transform="scale(0.015625)"/>
      </defs>
      <use xlink:href="#DejaVuSans-54"/>
      <use xlink:href="#DejaVuSans-69" x="57.958984"/>
      <use xlink:href="#DejaVuSans-6d" x="85.742188"/>
      <use xlink:href="#DejaVuSans-65" x="183.154297"/>
      <use xlink:href="#DejaVuSans-20" x="244.677734"/>
      <use xlink:href="#DejaVuSans-28" x="276.464844"/>
      <use xlink:href="#DejaVuSans-73" x="315.478516"/>
      <use xlink:href="#DejaVuSans-29" x="367.578125"/>
     </g>
    </g>
   </g>
   <g id="matplotlib.axis_2">
    <g id="ytick_1">
     <g id="line2d_11">
      <path d="M 59.04 164.250516 
L 578.592 164.250516 
" clip-path="url(#pa09f8a9a3d)" style="fill: none; stroke: #d9d9d9; stroke-opacity: 0.75; stroke-width: 0.7; stroke-linecap: square"/>
     </g>
     <g id="line2d_12">
      <defs>
       <path id="md0359f5be5" d="M 0 0 
L -3.5 0 
" style="stroke: #000000; stroke-width: 0.8"/>
      </defs>
      <g>
       <use xlink:href="#md0359f5be5" x="59.04" y="164.250516" style="stroke: #000000; stroke-width: 0.8"/>
      </g>
     </g>
     <g id="text_7">
      <!-- 150 -->
      <g transform="translate(36.77 167.289891) scale(0.08 -0.08)">
       <defs>
        <path id="DejaVuSans-35" d="M 691 4666 
L 3169 4666 
L 3169 4134 
L 1269 4134 
L 1269 2991 
Q 1406 3038 1543 3061 
Q 1681 3084 1819 3084 
Q 2600 3084 3056 2656 
Q 3513 2228 3513 1497 
Q 3513 744 3044 326 
Q 2575 -91 1722 -91 
Q 1428 -91 1123 -41 
Q 819 9 494 109 
L 494 744 
Q 775 591 1075 516 
Q 1375 441 1709 441 
Q 2250 441 2565 725 
Q 2881 1009 2881 1497 
Q 2881 1984 2565 2268 
Q 2250 2553 1709 2553 
Q 1456 2553 1204 2497 
Q 953 2441 691 2322 
L 691 4666 
z
" transform="scale(0.015625)"/>
       </defs>
       <use xlink:href="#DejaVuSans-31"/>
       <use xlink:href="#DejaVuSans-35" x="63.623047"/>
       <use xlink:href="#DejaVuSans-30" x="127.246094"/>
      </g>
     </g>
    </g>
    <g id="ytick_2">
     <g id="line2d_13">
      <path d="M 59.04 143.029663 
L 578.592 143.029663 
" clip-path="url(#pa09f8a9a3d)" style="fill: none; stroke: #d9d9d9; stroke-opacity: 0.75; stroke-width: 0.7; stroke-linecap: square"/>
     </g>
     <g id="line2d_14">
      <g>
       <use xlink:href="#md0359f5be5" x="59.04" y="143.029663" style="stroke: #000000; stroke-width: 0.8"/>
      </g>
     </g>
     <g id="text_8">
      <!-- 175 -->
      <g transform="translate(36.77 146.069038) scale(0.08 -0.08)">
       <defs>
        <path id="DejaVuSans-37" d="M 525 4666 
L 3525 4666 
L 3525 4397 
L 1831 0 
L 1172 0 
L 2766 4134 
L 525 4134 
L 525 4666 
z
" transform="scale(0.015625)"/>
       </defs>
       <use xlink:href="#DejaVuSans-31"/>
       <use xlink:href="#DejaVuSans-37" x="63.623047"/>
       <use xlink:href="#DejaVuSans-35" x="127.246094"/>
      </g>
     </g>
    </g>
    <g id="ytick_3">
     <g id="line2d_15">
      <path d="M 59.04 121.808811 
L 578.592 121.808811 
" clip-path="url(#pa09f8a9a3d)" style="fill: none; stroke: #d9d9d9; stroke-opacity: 0.75; stroke-width: 0.7; stroke-linecap: square"/>
     </g>
     <g id="line2d_16">
      <g>
       <use xlink:href="#md0359f5be5" x="59.04" y="121.808811" style="stroke: #000000; stroke-width: 0.8"/>
      </g>
     </g>
     <g id="text_9">
      <!-- 200 -->
      <g transform="translate(36.77 124.848186) scale(0.08 -0.08)">
       <use xlink:href="#DejaVuSans-32"/>
       <use xlink:href="#DejaVuSans-30" x="63.623047"/>
       <use xlink:href="#DejaVuSans-30" x="127.246094"/>
      </g>
     </g>
    </g>
    <g id="ytick_4">
     <g id="line2d_17">
      <path d="M 59.04 100.587959 
L 578.592 100.587959 
" clip-path="url(#pa09f8a9a3d)" style="fill: none; stroke: #d9d9d9; stroke-opacity: 0.75; stroke-width: 0.7; stroke-linecap: square"/>
     </g>
     <g id="line2d_18">
      <g>
       <use xlink:href="#md0359f5be5" x="59.04" y="100.587959" style="stroke: #000000; stroke-width: 0.8"/>
      </g>
     </g>
     <g id="text_10">
      <!-- 225 -->
      <g transform="translate(36.77 103.627334) scale(0.08 -0.08)">
       <use xlink:href="#DejaVuSans-32"/>
       <use xlink:href="#DejaVuSans-32" x="63.623047"/>
       <use xlink:href="#DejaVuSans-35" x="127.246094"/>
      </g>
     </g>
    </g>
    <g id="ytick_5">
     <g id="line2d_19">
      <path d="M 59.04 79.367106 
L 578.592 79.367106 
" clip-path="url(#pa09f8a9a3d)" style="fill: none; stroke: #d9d9d9; stroke-opacity: 0.75; stroke-width: 0.7; stroke-linecap: square"/>
     </g>
     <g id="line2d_20">
      <g>
       <use xlink:href="#md0359f5be5" x="59.04" y="79.367106" style="stroke: #000000; stroke-width: 0.8"/>
      </g>
     </g>
     <g id="text_11">
      <!-- 250 -->
      <g transform="translate(36.77 82.406481) scale(0.08 -0.08)">
       <use xlink:href="#DejaVuSans-32"/>
       <use xlink:href="#DejaVuSans-35" x="63.623047"/>
       <use xlink:href="#DejaVuSans-30" x="127.246094"/>
      </g>
     </g>
    </g>
    <g id="ytick_6">
     <g id="line2d_21">
      <path d="M 59.04 58.146254 
L 578.592 58.146254 
" clip-path="url(#pa09f8a9a3d)" style="fill: none; stroke: #d9d9d9; stroke-opacity: 0.75; stroke-width: 0.7; stroke-linecap: square"/>
     </g>
     <g id="line2d_22">
      <g>
       <use xlink:href="#md0359f5be5" x="59.04" y="58.146254" style="stroke: #000000; stroke-width: 0.8"/>
      </g>
     </g>
     <g id="text_12">
      <!-- 275 -->
      <g transform="translate(36.77 61.185629) scale(0.08 -0.08)">
       <use xlink:href="#DejaVuSans-32"/>
       <use xlink:href="#DejaVuSans-37" x="63.623047"/>
       <use xlink:href="#DejaVuSans-35" x="127.246094"/>
      </g>
     </g>
    </g>
    <g id="ytick_7">
     <g id="line2d_23">
      <path d="M 59.04 36.925402 
L 578.592 36.925402 
" clip-path="url(#pa09f8a9a3d)" style="fill: none; stroke: #d9d9d9; stroke-opacity: 0.75; stroke-width: 0.7; stroke-linecap: square"/>
     </g>
     <g id="line2d_24">
      <g>
       <use xlink:href="#md0359f5be5" x="59.04" y="36.925402" style="stroke: #000000; stroke-width: 0.8"/>
      </g>
     </g>
     <g id="text_13">
      <!-- 300 -->
      <g transform="translate(36.77 39.964777) scale(0.08 -0.08)">
       <use xlink:href="#DejaVuSans-33"/>
       <use xlink:href="#DejaVuSans-30" x="63.623047"/>
       <use xlink:href="#DejaVuSans-30" x="127.246094"/>
      </g>
     </g>
    </g>
    <g id="ytick_8">
     <g id="line2d_25">
      <path d="M 59.04 15.704549 
L 578.592 15.704549 
" clip-path="url(#pa09f8a9a3d)" style="fill: none; stroke: #d9d9d9; stroke-opacity: 0.75; stroke-width: 0.7; stroke-linecap: square"/>
     </g>
     <g id="line2d_26">
      <g>
       <use xlink:href="#md0359f5be5" x="59.04" y="15.704549" style="stroke: #000000; stroke-width: 0.8"/>
      </g>
     </g>
     <g id="text_14">
      <!-- 325 -->
      <g transform="translate(36.77 18.743924) scale(0.08 -0.08)">
       <use xlink:href="#DejaVuSans-33"/>
       <use xlink:href="#DejaVuSans-32" x="63.623047"/>
       <use xlink:href="#DejaVuSans-35" x="127.246094"/>
      </g>
     </g>
    </g>
    <g id="text_15">
     <!-- Pitch (Hz) -->
     <g transform="translate(30.690312 120.434531) rotate(-90) scale(0.1 -0.1)">
      <defs>
       <path id="DejaVuSans-50" d="M 1259 4147 
L 1259 2394 
L 2053 2394 
Q 2494 2394 2734 2622 
Q 2975 2850 2975 3272 
Q 2975 3691 2734 3919 
Q 2494 4147 2053 4147 
L 1259 4147 
z
M 628 4666 
L 2053 4666 
Q 2838 4666 3239 4311 
Q 3641 3956 3641 3272 
Q 3641 2581 3239 2228 
Q 2838 1875 2053 1875 
L 1259 1875 
L 1259 0 
L 628 0 
L 628 4666 
z
" transform="scale(0.015625)"/>
       <path id="DejaVuSans-74" d="M 1172 4494 
L 1172 3500 
L 2356 3500 
L 2356 3053 
L 1172 3053 
L 1172 1153 
Q 1172 725 1289 603 
Q 1406 481 1766 481 
L 2356 481 
L 2356 0 
L 1766 0 
Q 1100 0 847 248 
Q 594 497 594 1153 
L 594 3053 
L 172 3053 
L 172 3500 
L 594 3500 
L 594 4494 
L 1172 4494 
z
" transform="scale(0.015625)"/>
       <path id="DejaVuSans-63" d="M 3122 3366 
L 3122 2828 
Q 2878 2963 2633 3030 
Q 2388 3097 2138 3097 
Q 1578 3097 1268 2742 
Q 959 2388 959 1747 
Q 959 1106 1268 751 
Q 1578 397 2138 397 
Q 2388 397 2633 464 
Q 2878 531 3122 666 
L 3122 134 
Q 2881 22 2623 -34 
Q 2366 -91 2075 -91 
Q 1284 -91 818 406 
Q 353 903 353 1747 
Q 353 2603 823 3093 
Q 1294 3584 2113 3584 
Q 2378 3584 2631 3529 
Q 2884 3475 3122 3366 
z
" transform="scale(0.015625)"/>
       <path id="DejaVuSans-68" d="M 3513 2113 
L 3513 0 
L 2938 0 
L 2938 2094 
Q 2938 2591 2744 2837 
Q 2550 3084 2163 3084 
Q 1697 3084 1428 2787 
Q 1159 2491 1159 1978 
L 1159 0 
L 581 0 
L 581 4863 
L 1159 4863 
L 1159 2956 
Q 1366 3272 1645 3428 
Q 1925 3584 2291 3584 
Q 2894 3584 3203 3211 
Q 3513 2838 3513 2113 
z
" transform="scale(0.015625)"/>
       <path id="DejaVuSans-48" d="M 628 4666 
L 1259 4666 
L 1259 2753 
L 3553 2753 
L 3553 4666 
L 4184 4666 
L 4184 0 
L 3553 0 
L 3553 2222 
L 1259 2222 
L 1259 0 
L 628 0 
L 628 4666 
z
" transform="scale(0.015625)"/>
       <path id="DejaVuSans-7a" d="M 353 3500 
L 3084 3500 
L 3084 2975 
L 922 459 
L 3084 459 
L 3084 0 
L 275 0 
L 275 525 
L 2438 3041 
L 353 3041 
L 353 3500 
z
" transform="scale(0.015625)"/>
      </defs>
      <use xlink:href="#DejaVuSans-50"/>
      <use xlink:href="#DejaVuSans-69" x="58.052734"/>
      <use xlink:href="#DejaVuSans-74" x="85.835938"/>
      <use xlink:href="#DejaVuSans-63" x="125.044922"/>
      <use xlink:href="#DejaVuSans-68" x="180.025391"/>
      <use xlink:href="#DejaVuSans-20" x="243.404297"/>
      <use xlink:href="#DejaVuSans-28" x="275.191406"/>
      <use xlink:href="#DejaVuSans-48" x="314.205078"/>
      <use xlink:href="#DejaVuSans-7a" x="389.400391"/>
      <use xlink:href="#DejaVuSans-29" x="441.890625"/>
     </g>
    </g>
   </g>
   <g id="patch_3">
    <path d="M 59.04 183.708 
L 59.04 9.072 
" style="fill: none; stroke: #000000; stroke-width: 0.8; stroke-linejoin: miter; stroke-linecap: square"/>
   </g>
   <g id="patch_4">
    <path d="M 59.04 183.708 
L 578.592 183.708 
" style="fill: none; stroke: #000000; stroke-width: 0.8; stroke-linejoin: miter; stroke-linecap: square"/>
   </g>
   <g id="line2d_27">
    <path d="M 62.962079 112.973808 
L 64.090717 106.519971 
L 65.219354 104.401498 
L 66.347991 103.620313 
L 67.476629 103.352757 
L 68.605266 102.345443 
L 69.733904 99.956285 
L 70.862541 96.469632 
L 74.248454 83.842564 
L 75.377091 81.229997 
L 77.634366 81.137285 
L 78.763003 83.442885 
L 79.891641 87.831961 
L 82.148916 100.965974 
L 83.277553 105.455563 
L 85.534828 118.772738 
L 86.663466 126.635238 
L 87.792103 130.182187 
L 90.049378 135.570532 
L 91.178015 136.966234 
L 92.306653 137.057638 
M 127.294414 120.627246 
L 129.551689 117.893896 
L 131.808964 116.530535 
L 132.937601 116.122204 
L 134.066239 115.895439 
L 136.323514 115.877165 
L 137.452151 116.019521 
L 138.580788 116.030908 
L 139.709426 117.255387 
L 140.838063 117.255387 
L 143.095338 115.666547 
L 144.223976 115.4051 
L 145.352613 113.323859 
L 146.481251 112.411085 
L 147.609888 112.411085 
L 148.738526 112.568352 
L 149.867163 112.953518 
L 150.9958 112.953518 
L 152.124438 112.719548 
L 153.253075 111.224848 
L 156.638988 106.189371 
L 157.767625 104.632841 
L 158.896263 104.632841 
L 160.0249 112.407032 
L 161.153538 112.407032 
L 162.282175 110.250164 
L 163.410812 108.910944 
M 174.697187 105.560241 
L 175.825824 104.35883 
L 176.954462 101.337898 
L 178.083099 97.549679 
L 179.211737 92.800831 
L 180.340374 85.050295 
L 181.469012 78.984018 
L 182.597649 78.382926 
L 183.726287 77.392117 
M 201.784486 143.374639 
L 202.913123 144.302531 
L 204.041761 145.987526 
L 205.170398 148.099569 
L 207.427673 153.672592 
L 208.556311 155.249685 
L 211.942223 155.24322 
L 215.328135 159.912973 
L 216.456773 161.172767 
L 217.58541 161.839314 
L 219.842685 162.198502 
L 220.971323 162.198502 
L 222.09996 161.892966 
L 223.228597 160.935439 
L 225.485872 160.775972 
L 226.61451 160.483376 
L 227.743147 160.483376 
L 228.871785 161.274996 
M 267.245458 112.04093 
L 268.374096 110.788275 
L 269.502733 109.297256 
L 270.63137 108.527715 
L 271.760008 108.527715 
L 272.888645 110.329177 
L 274.017283 113.004181 
L 275.14592 114.908499 
M 285.303657 112.32367 
L 286.432295 114.127095 
L 287.560932 116.143184 
L 290.946845 121.282339 
L 292.075482 122.002028 
L 293.204119 122.248975 
L 294.332757 122.248975 
L 295.461394 122.036915 
L 297.718669 122.037902 
L 298.847307 122.748235 
L 301.104582 127.571651 
L 302.233219 128.20465 
M 311.262319 131.247211 
L 312.390956 131.214077 
L 313.519594 124.234676 
L 314.648231 120.760068 
L 316.905506 115.390328 
L 318.034143 113.333581 
L 319.162781 112.020359 
L 320.291418 110.309362 
L 321.420056 108.047684 
L 322.548693 106.520182 
L 323.677331 105.410286 
L 324.805968 104.703035 
L 325.934606 104.703035 
L 327.063243 105.117575 
L 329.320518 106.481926 
L 330.449155 106.868747 
L 331.577793 107.772726 
L 332.70643 108.884186 
L 333.835068 109.102351 
L 334.963705 109.440718 
L 337.22098 109.464314 
L 340.606892 102.557853 
L 341.73553 99.845636 
L 342.864167 97.867668 
L 343.992805 96.307603 
L 346.25008 92.58287 
L 347.378717 91.055324 
L 348.507355 90.341092 
L 349.635992 90.341092 
L 350.76463 90.586281 
L 353.021904 90.686767 
L 355.279179 98.235129 
L 356.407817 102.604515 
L 357.536454 107.630972 
L 358.665092 114.110299 
L 359.793729 117.83695 
L 360.922367 122.641072 
L 362.051004 128.197537 
L 363.179642 129.707484 
L 364.308279 129.707484 
L 365.436916 128.413339 
L 366.565554 128.413339 
L 368.822829 128.966881 
L 369.951466 129.214182 
L 371.080104 129.824531 
L 372.208741 132.462268 
L 373.337379 133.497769 
L 374.466016 133.554921 
M 378.980566 136.445569 
L 380.109203 138.039699 
L 381.237841 138.039699 
L 382.366478 137.900285 
L 383.495116 137.062656 
L 384.623753 137.062656 
L 385.752391 138.887906 
L 386.881028 140.001133 
L 388.009666 140.82786 
L 389.138303 141.271094 
L 390.26694 141.271094 
L 392.524215 140.895837 
L 394.78149 140.942013 
M 411.711052 129.071382 
L 412.839689 129.529189 
L 413.968327 129.529189 
L 415.096964 128.780218 
L 416.225602 126.17359 
L 418.482877 116.334777 
L 419.611514 112.763843 
L 420.740152 111.400285 
L 421.868789 111.400285 
L 424.126064 115.892152 
M 430.897889 168.556067 
L 432.026526 169.733192 
L 433.155164 171.85493 
L 434.283801 172.451844 
L 436.541076 173.122022 
M 494.101586 89.273443 
L 495.230224 89.274905 
L 496.358861 89.411452 
L 497.487498 89.411452 
L 498.616136 88.900321 
L 500.873411 87.072249 
L 502.002048 86.37089 
L 503.130686 86.235956 
L 504.259323 86.235956 
L 505.387961 87.03681 
L 506.516598 87.038516 
L 507.645235 87.65472 
L 509.90251 87.83166 
L 511.031148 88.361275 
L 512.159785 88.361275 
L 513.288423 87.171651 
L 514.41706 82.801506 
L 515.545698 76.750827 
L 516.674335 69.000403 
L 518.93161 47.233308 
L 520.060247 35.875797 
L 521.188885 28.216935 
L 522.317522 23.302302 
L 523.44616 16.892497 
L 524.574797 14.348544 
M 538.118447 127.726185 
L 539.247084 131.221288 
L 540.375722 138.530943 
L 542.632997 146.844361 
L 543.761634 149.639086 
L 544.890271 151.700256 
L 546.018909 154.158451 
L 547.147546 156.929587 
M 553.919371 162.281481 
L 555.048009 163.119596 
L 558.433921 167.008613 
L 559.562558 167.569393 
L 560.691196 168.267122 
L 562.948471 170.271947 
L 564.077108 171.43632 
L 565.205746 171.878365 
L 566.334383 171.878365 
L 567.46302 171.498138 
L 567.46302 171.498138 
" clip-path="url(#pa09f8a9a3d)" style="fill: none; stroke-dasharray: 2.2,3.63; stroke-dashoffset: 0; stroke: #b279a2; stroke-width: 2.2"/>
   </g>
   <g id="line2d_28">
    <path d="M 64.872573 125.325024 
L 66.001211 125.187899 
L 68.258485 109.908631 
L 69.387123 103.030137 
L 70.51576 101.170756 
L 71.644398 98.496543 
L 72.773035 95.134307 
L 73.901673 88.772068 
L 75.03031 77.011063 
L 77.287585 64.502912 
L 78.416223 59.350965 
L 79.54486 55.463111 
L 80.673497 54.65451 
L 81.802135 54.65451 
L 84.05941 61.18169 
M 89.702597 124.922086 
L 90.831235 125.759453 
L 91.959872 125.759453 
L 93.088509 123.352599 
L 94.217147 122.083199 
L 95.345784 122.083199 
L 96.474422 122.414541 
M 137.10537 101.072662 
L 138.234008 98.93246 
L 139.362645 95.934967 
L 140.491282 93.808546 
L 141.61992 92.580873 
L 142.748557 91.948325 
L 143.877195 89.958311 
L 145.005832 85.62292 
L 146.13447 83.609582 
L 147.263107 82.76259 
L 148.391745 82.76259 
L 149.520382 84.555162 
L 150.64902 85.716377 
L 151.777657 85.954989 
L 154.034932 85.937032 
L 155.163569 85.020329 
L 156.292207 82.123963 
L 157.420844 82.123963 
L 158.549482 86.666078 
M 173.221769 71.374628 
L 174.350406 66.908292 
L 177.736318 35.834086 
L 178.864956 31.60697 
L 179.993593 30.959664 
M 200.309067 129.90776 
L 201.437705 133.24428 
L 202.566342 138.539305 
L 203.69498 141.102558 
L 204.823617 141.343653 
L 205.952255 141.343653 
L 207.080892 140.50608 
L 208.20953 140.50608 
L 209.338167 143.454033 
L 210.466805 146.795722 
L 211.595442 147.084668 
L 212.724079 147.084668 
L 213.852717 145.289471 
L 214.981354 145.289471 
L 216.109992 146.271558 
L 217.238629 148.310389 
L 218.367267 150.893376 
L 219.495904 152.999257 
L 220.624542 154.212189 
L 222.881817 154.674966 
L 224.010454 156.462692 
L 225.139091 156.462692 
L 226.267729 151.35415 
L 227.396366 141.905527 
L 228.525004 137.101709 
L 229.653641 136.695597 
M 258.998215 60.096524 
L 260.126852 59.804546 
L 261.25549 59.804546 
L 262.384127 82.780793 
L 263.512765 82.82 
M 269.155952 75.876497 
L 270.28459 75.888729 
L 271.413227 77.096649 
L 273.670502 86.266944 
L 274.799139 89.569561 
L 275.927777 90.9799 
L 278.185052 92.192087 
L 279.313689 93.309683 
L 280.442327 96.094761 
L 281.570964 105.089517 
L 282.699602 109.284531 
M 296.243251 145.228128 
L 297.371888 144.084912 
L 298.500526 141.234497 
L 299.629163 135.71654 
L 300.757801 126.757085 
L 301.886438 114.56829 
L 303.015076 109.843303 
L 305.272351 101.523103 
L 306.400988 98.719912 
L 308.658263 94.675211 
L 309.7869 92.442488 
L 310.915538 89.294214 
L 312.044175 85.81189 
L 313.172813 81.843574 
L 314.30145 76.163358 
L 315.430088 69.813957 
L 316.558725 64.668743 
L 317.687363 61.73378 
L 318.816 59.634173 
L 319.944637 58.416712 
L 322.201912 58.347074 
L 323.33055 59.821038 
L 324.459187 64.75248 
L 325.587825 76.246728 
L 328.973737 101.936543 
L 330.102375 111.906021 
L 331.231012 119.078704 
L 332.359649 124.718662 
L 333.488287 128.17273 
L 334.616924 128.17273 
L 335.745562 124.365576 
L 338.002837 113.664716 
L 339.131474 110.521915 
L 340.260112 107.933141 
L 341.388749 105.061212 
L 342.517387 101.73019 
L 343.646024 97.617287 
L 344.774661 91.700432 
L 345.903299 83.639076 
L 347.031936 76.732745 
L 348.160574 71.129563 
L 349.289211 66.563116 
L 351.546486 66.592167 
L 352.675124 69.347223 
L 353.803761 73.699094 
L 354.932398 79.12016 
L 357.189673 93.970141 
L 358.318311 103.406306 
L 360.575586 124.547172 
L 361.704223 131.241157 
L 362.832861 135.639199 
L 363.961498 139.393161 
L 365.090136 139.393161 
L 366.218773 135.612363 
L 367.34741 131.199944 
L 368.476048 130.054817 
L 369.604685 130.054817 
L 370.733323 130.363253 
L 371.86196 130.508126 
L 372.990598 130.508126 
L 375.247873 130.11205 
L 376.37651 129.269364 
L 377.505148 127.082437 
M 387.662885 123.785055 
L 388.791522 126.180424 
L 389.92016 126.908616 
L 392.177434 133.541747 
L 393.306072 135.084459 
L 394.434709 135.997972 
L 395.563347 136.246535 
L 396.691984 136.246535 
L 397.820622 135.612908 
L 398.949259 134.545701 
L 400.077897 134.393847 
M 411.364271 90.085283 
L 412.492909 91.930116 
L 413.621546 95.362126 
L 414.750183 96.703862 
L 415.878821 96.761818 
L 417.007458 96.989647 
L 418.136096 97.099391 
L 419.264733 99.672169 
L 420.393371 105.462143 
L 422.650646 125.156925 
L 423.779283 135.830231 
L 424.907921 144.745925 
L 426.036558 151.818473 
L 429.42247 161.827773 
L 430.551108 167.325459 
L 431.679745 169.090861 
M 476.825243 77.529541 
L 477.953881 77.176407 
L 479.082518 76.278473 
L 482.468431 74.800776 
L 484.725706 74.847097 
L 485.854343 76.234541 
L 486.98298 78.996605 
L 488.111618 82.077944 
L 489.240255 85.663009 
L 490.368893 90.15012 
L 491.49753 93.12507 
L 492.626168 93.12507 
L 493.754805 89.573363 
L 494.883443 85.433954 
L 496.01208 82.039069 
M 501.655267 12.32478 
L 502.783905 9.75986 
L 503.912542 9.072 
M 517.456192 88.571311 
L 518.584829 90.213607 
L 519.713467 93.982776 
L 520.842104 105.690643 
L 521.970741 121.240554 
L 523.099379 130.909838 
L 524.228016 134.82792 
M 532.128479 151.288977 
L 533.257116 151.426525 
L 536.643028 153.534379 
L 537.771666 154.833604 
L 538.900303 155.798788 
L 540.028941 156.44463 
L 542.286216 157.543438 
L 543.414853 157.764801 
L 544.543491 157.764801 
L 545.672128 157.460132 
L 546.800765 156.901002 
L 547.929403 155.514965 
L 549.05804 153.756958 
L 550.186678 151.490084 
L 551.315315 150.231138 
L 551.315315 150.231138 
" clip-path="url(#pa09f8a9a3d)" style="fill: none; stroke: #111111; stroke-width: 2.7; stroke-linecap: round"/>
   </g>
   <g id="legend_1">
    <g id="line2d_29">
     <path d="M 484.842312 20.205672 
L 496.742312 20.205672 
L 508.642312 20.205672 
" style="fill: none; stroke: #111111; stroke-width: 2.7; stroke-linecap: round"/>
    </g>
    <g id="text_16">
     <!-- Ground Truth -->
     <g transform="translate(515.442312 23.180672) scale(0.085 -0.085)">
      <defs>
       <path id="DejaVuSans-47" d="M 3809 666 
L 3809 1919 
L 2778 1919 
L 2778 2438 
L 4434 2438 
L 4434 434 
Q 4069 175 3628 42 
Q 3188 -91 2688 -91 
Q 1594 -91 976 548 
Q 359 1188 359 2328 
Q 359 3472 976 4111 
Q 1594 4750 2688 4750 
Q 3144 4750 3555 4637 
Q 3966 4525 4313 4306 
L 4313 3634 
Q 3963 3931 3569 4081 
Q 3175 4231 2741 4231 
Q 1884 4231 1454 3753 
Q 1025 3275 1025 2328 
Q 1025 1384 1454 906 
Q 1884 428 2741 428 
Q 3075 428 3337 486 
Q 3600 544 3809 666 
z
" transform="scale(0.015625)"/>
       <path id="DejaVuSans-72" d="M 2631 2963 
Q 2534 3019 2420 3045 
Q 2306 3072 2169 3072 
Q 1681 3072 1420 2755 
Q 1159 2438 1159 1844 
L 1159 0 
L 581 0 
L 581 3500 
L 1159 3500 
L 1159 2956 
Q 1341 3275 1631 3429 
Q 1922 3584 2338 3584 
Q 2397 3584 2469 3576 
Q 2541 3569 2628 3553 
L 2631 2963 
z
" transform="scale(0.015625)"/>
       <path id="DejaVuSans-6f" d="M 1959 3097 
Q 1497 3097 1228 2736 
Q 959 2375 959 1747 
Q 959 1119 1226 758 
Q 1494 397 1959 397 
Q 2419 397 2687 759 
Q 2956 1122 2956 1747 
Q 2956 2369 2687 2733 
Q 2419 3097 1959 3097 
z
M 1959 3584 
Q 2709 3584 3137 3096 
Q 3566 2609 3566 1747 
Q 3566 888 3137 398 
Q 2709 -91 1959 -91 
Q 1206 -91 779 398 
Q 353 888 353 1747 
Q 353 2609 779 3096 
Q 1206 3584 1959 3584 
z
" transform="scale(0.015625)"/>
       <path id="DejaVuSans-75" d="M 544 1381 
L 544 3500 
L 1119 3500 
L 1119 1403 
Q 1119 906 1312 657 
Q 1506 409 1894 409 
Q 2359 409 2629 706 
Q 2900 1003 2900 1516 
L 2900 3500 
L 3475 3500 
L 3475 0 
L 2900 0 
L 2900 538 
Q 2691 219 2414 64 
Q 2138 -91 1772 -91 
Q 1169 -91 856 284 
Q 544 659 544 1381 
z
M 1991 3584 
L 1991 3584 
z
" transform="scale(0.015625)"/>
       <path id="DejaVuSans-6e" d="M 3513 2113 
L 3513 0 
L 2938 0 
L 2938 2094 
Q 2938 2591 2744 2837 
Q 2550 3084 2163 3084 
Q 1697 3084 1428 2787 
Q 1159 2491 1159 1978 
L 1159 0 
L 581 0 
L 581 3500 
L 1159 3500 
L 1159 2956 
Q 1366 3272 1645 3428 
Q 1925 3584 2291 3584 
Q 2894 3584 3203 3211 
Q 3513 2838 3513 2113 
z
" transform="scale(0.015625)"/>
       <path id="DejaVuSans-64" d="M 2906 2969 
L 2906 4863 
L 3481 4863 
L 3481 0 
L 2906 0 
L 2906 525 
Q 2725 213 2448 61 
Q 2172 -91 1784 -91 
Q 1150 -91 751 415 
Q 353 922 353 1747 
Q 353 2572 751 3078 
Q 1150 3584 1784 3584 
Q 2172 3584 2448 3432 
Q 2725 3281 2906 2969 
z
M 947 1747 
Q 947 1113 1208 752 
Q 1469 391 1925 391 
Q 2381 391 2643 752 
Q 2906 1113 2906 1747 
Q 2906 2381 2643 2742 
Q 2381 3103 1925 3103 
Q 1469 3103 1208 2742 
Q 947 2381 947 1747 
z
" transform="scale(0.015625)"/>
      </defs>
      <use xlink:href="#DejaVuSans-47"/>
      <use xlink:href="#DejaVuSans-72" x="77.490234"/>
      <use xlink:href="#DejaVuSans-6f" x="116.353516"/>
      <use xlink:href="#DejaVuSans-75" x="177.535156"/>
      <use xlink:href="#DejaVuSans-6e" x="240.914062"/>
      <use xlink:href="#DejaVuSans-64" x="304.292969"/>
      <use xlink:href="#DejaVuSans-20" x="367.769531"/>
      <use xlink:href="#DejaVuSans-54" x="399.556641"/>
      <use xlink:href="#DejaVuSans-72" x="445.890625"/>
      <use xlink:href="#DejaVuSans-75" x="487.003906"/>
      <use xlink:href="#DejaVuSans-74" x="550.382812"/>
      <use xlink:href="#DejaVuSans-68" x="589.591797"/>
     </g>
    </g>
    <g id="line2d_30">
     <path d="M 484.842312 32.682078 
L 496.742312 32.682078 
L 508.642312 32.682078 
" style="fill: none; stroke-dasharray: 2.2,3.63; stroke-dashoffset: 0; stroke: #b279a2; stroke-width: 2.2"/>
    </g>
    <g id="text_17">
     <!-- FCTalker -->
     <g transform="translate(515.442312 35.657078) scale(0.085 -0.085)">
      <defs>
       <path id="DejaVuSans-46" d="M 628 4666 
L 3309 4666 
L 3309 4134 
L 1259 4134 
L 1259 2759 
L 3109 2759 
L 3109 2228 
L 1259 2228 
L 1259 0 
L 628 0 
L 628 4666 
z
" transform="scale(0.015625)"/>
       <path id="DejaVuSans-43" d="M 4122 4306 
L 4122 3641 
Q 3803 3938 3442 4084 
Q 3081 4231 2675 4231 
Q 1875 4231 1450 3742 
Q 1025 3253 1025 2328 
Q 1025 1406 1450 917 
Q 1875 428 2675 428 
Q 3081 428 3442 575 
Q 3803 722 4122 1019 
L 4122 359 
Q 3791 134 3420 21 
Q 3050 -91 2638 -91 
Q 1578 -91 968 557 
Q 359 1206 359 2328 
Q 359 3453 968 4101 
Q 1578 4750 2638 4750 
Q 3056 4750 3426 4639 
Q 3797 4528 4122 4306 
z
" transform="scale(0.015625)"/>
       <path id="DejaVuSans-61" d="M 2194 1759 
Q 1497 1759 1228 1600 
Q 959 1441 959 1056 
Q 959 750 1161 570 
Q 1363 391 1709 391 
Q 2188 391 2477 730 
Q 2766 1069 2766 1631 
L 2766 1759 
L 2194 1759 
z
M 3341 1997 
L 3341 0 
L 2766 0 
L 2766 531 
Q 2569 213 2275 61 
Q 1981 -91 1556 -91 
Q 1019 -91 701 211 
Q 384 513 384 1019 
Q 384 1609 779 1909 
Q 1175 2209 1959 2209 
L 2766 2209 
L 2766 2266 
Q 2766 2663 2505 2880 
Q 2244 3097 1772 3097 
Q 1472 3097 1187 3025 
Q 903 2953 641 2809 
L 641 3341 
Q 956 3463 1253 3523 
Q 1550 3584 1831 3584 
Q 2591 3584 2966 3190 
Q 3341 2797 3341 1997 
z
" transform="scale(0.015625)"/>
       <path id="DejaVuSans-6c" d="M 603 4863 
L 1178 4863 
L 1178 0 
L 603 0 
L 603 4863 
z
" transform="scale(0.015625)"/>
       <path id="DejaVuSans-6b" d="M 581 4863 
L 1159 4863 
L 1159 1991 
L 2875 3500 
L 3609 3500 
L 1753 1863 
L 3688 0 
L 2938 0 
L 1159 1709 
L 1159 0 
L 581 0 
L 581 4863 
z
" transform="scale(0.015625)"/>
      </defs>
      <use xlink:href="#DejaVuSans-46"/>
      <use xlink:href="#DejaVuSans-43" x="57.519531"/>
      <use xlink:href="#DejaVuSans-54" x="127.34375"/>
      <use xlink:href="#DejaVuSans-61" x="171.927734"/>
      <use xlink:href="#DejaVuSans-6c" x="233.207031"/>
      <use xlink:href="#DejaVuSans-6b" x="260.990234"/>
      <use xlink:href="#DejaVuSans-65" x="315.275391"/>
      <use xlink:href="#DejaVuSans-72" x="376.798828"/>
     </g>
    </g>
   </g>
  </g>
 </g>
 <defs>
  <clipPath id="pa09f8a9a3d">
   <rect x="59.04" y="9.072" width="519.552" height="174.636"/>
  </clipPath>
 </defs>
</svg>
